<?xml version="1.0" encoding="utf-8"?>
<!-- Generator: Adobe Illustrator 19.2.1, SVG Export Plug-In . SVG Version: 6.00 Build 0)  -->
<svg version="1.1" id="layer" xmlns="http://www.w3.org/2000/svg" xmlns:xlink="http://www.w3.org/1999/xlink" x="0px" y="0px"
	 viewBox="0 0 652 652" style="enable-background:new 0 0 652 652;" xml:space="preserve">
<title>Valtech</title>
<path d="M77.9,379.8H53.3L21,290.6h26.2l18.5,65.8h0.5l19-65.8h25.1L77.9,379.8z M188.5,362.3c0,10.6,2.4,13,5.3,14.1v3.4h-25.4
	c-1.3-3.4-2.1-7-2.4-10.6c-7.1,8.5-17.8,13.3-28.9,13c-13.5,0-27.3-7.4-27.3-25.9s11.1-26.5,25.9-28.6l21.4-3.2
	c3.7-0.5,8.2-2.1,8.2-7.1c0-10-9.5-10.5-15.7-10.5c-11.6,0-13.8,7.1-14.3,12.4h-22.8c2.6-27.2,21.7-31.2,40-31.2
	c12.7,0,35.7,4,35.7,25.9L188.5,362.3z M165.6,336.4c-2.4,1.8-6.4,3.5-16.1,4.8c-9.8,1.2-15.9,3.7-15.9,13.5
	c-0.3,5.7,4.1,10.5,9.8,10.9h1.1c10.6,0,21.2-6.9,21.2-17.6V336.4z M226.4,379.8h-23.6V259.4h23.6L226.4,379.8z M271.1,290.6h14.8
	v16.7h-14.8V356c0,5,0.3,7.1,9.8,7.1h5v17.8h-14.3c-20.4,0-24.1-7.7-24.1-19.4v-54.2h-12.2v-16.7h12.2v-24.1h23.6L271.1,290.6z
	 M378,353.6c-6.4,21.7-24.4,28.6-39.7,28.6c-25.1,0-44.5-11.9-44.5-48.7c0-10.9,3.7-45.2,42.9-45.2c17.7,0,42.1,8.5,42.1,49.2v4.2
	h-61.4c0.5,6.6,2.1,21.7,20.9,21.7c6.6,0,13.5-3.2,15.4-9.8H378z M354.7,326.3c-1.3-14.3-10.9-18.8-18.3-18.8
	c-7.4,0-16.9,7.1-18.5,18.8H354.7z M467.5,347.2c-0.8,9.3-7.9,34.9-40.7,34.9s-41.5-25.7-41.5-44.5c0-28.8,12.7-49.4,42.9-49.4
	c14.3,0,37.6,6.4,39.7,34.1h-23.8c-1.1-5.5-4.5-14.3-14.5-14.3h-1.3c-14.8,0-18.5,14.8-18.5,25.9s0.3,28.9,18,28.9
	c12.2,0,16.1-11.4,16.1-15.6L467.5,347.2z M559.3,379.8h-23.6v-54c0-6.6-0.5-17.6-15.4-17.6c-10.6,0-18.5,7.1-18.5,20.6v51h-23.6
	V259.4h23.6v42.9h0.3c2.9-7.4,13.2-14,25.9-14c17.5,0,31.2,10.3,31.2,29.9L559.3,379.8z M573.9,363.1H621v16.8h-47.1V363.1z"/>
</svg>
